<?xml version="1.0" standalone="no"?>
<!DOCTYPE svg PUBLIC "-//W3C//DTD SVG 20010904//EN"
 "http://www.w3.org/TR/2001/REC-SVG-20010904/DTD/svg10.dtd">
<svg version="1.0" xmlns="http://www.w3.org/2000/svg"
 width="1600.000000pt" height="1600.000000pt" viewBox="0 0 1600.000000 1600.000000"
 preserveAspectRatio="xMidYMid meet">
<metadata>
Created by potrace 1.11, written by Peter Selinger 2001-2013
</metadata>
<g transform="translate(0.000000,1600.000000) scale(0.100000,-0.100000)"
fill="#000000" stroke="none">
<path d="M0 8000 l0 -8000 8000 0 8000 0 0 8000 0 8000 -8000 0 -8000 0 0
-8000z m7620 3102 c0 -10 -22 -186 -50 -392 -27 -206 -50 -375 -50 -377 0 -2
94 -3 208 -3 115 0 211 -2 213 -5 3 -2 -2 -57 -10 -122 l-16 -118 -215 -5
-215 -5 -125 -937 -124 -938 -143 0 -143 0 5 23 c3 12 59 425 125 917 66 492
122 905 125 918 l5 22 -178 0 c-98 0 -181 2 -184 5 -3 3 24 215 31 243 1 1 82
2 180 2 l179 0 6 28 c3 15 26 182 51 372 25 190 48 355 51 368 4 21 7 22 139
22 123 0 135 -2 135 -18z m-5185 -46 c391 -56 586 -143 803 -359 190 -188 317
-440 369 -732 22 -123 22 -388 -1 -515 -61 -346 -213 -645 -447 -881 -181
-180 -379 -279 -662 -329 -201 -35 -310 -40 -893 -40 -540 0 -574 1 -574 18 0
25 380 2835 385 2851 8 20 864 9 1020 -13z m3100 -710 c208 -63 387 -199 493
-374 l20 -34 6 39 c3 21 13 94 21 163 8 69 17 140 20 158 l6 32 145 0 146 0
-6 -37 c-3 -21 -67 -490 -141 -1043 -74 -553 -137 -1015 -140 -1027 -5 -23 -8
-23 -145 -23 -106 0 -140 3 -140 13 0 6 9 73 19 147 10 74 17 136 16 138 -2 2
-34 -24 -71 -58 -236 -211 -525 -314 -830 -296 -250 14 -447 95 -614 253 -143
134 -228 275 -277 459 -23 89 -26 118 -27 279 -1 141 3 198 18 265 53 245 161
437 350 625 145 144 281 231 461 294 141 50 218 61 410 57 150 -3 180 -6 260
-30z m4090 0 c137 -42 234 -97 333 -190 47 -45 106 -112 133 -149 l47 -68 7
53 c4 29 14 116 23 193 l17 140 148 3 148 3 -6 -33 c-3 -18 -66 -483 -140
-1033 -74 -550 -137 -1015 -140 -1032 l-6 -33 -139 0 c-164 0 -148 -23 -121
177 l18 132 -60 -55 c-125 -116 -279 -208 -432 -257 -138 -44 -191 -52 -360
-51 -138 1 -173 5 -256 27 -321 85 -561 306 -666 612 -94 275 -64 643 73 912
142 277 426 529 704 623 144 49 223 60 410 56 156 -3 185 -6 265 -30z m-5464
-2422 c91 -17 238 -82 298 -131 98 -82 159 -162 215 -284 44 -96 57 -162 57
-284 -1 -269 -146 -504 -388 -627 -112 -57 -202 -80 -318 -79 -162 2 -244 24
-385 107 -107 63 -224 198 -272 315 -23 55 -27 56 -108 35 -30 -7 -89 -21
-130 -30 -41 -10 -129 -30 -195 -46 -66 -15 -154 -35 -195 -45 -80 -18 -144
-32 -281 -65 -48 -11 -92 -20 -98 -20 -6 0 -11 15 -11 33 0 17 -7 59 -15 92
-18 76 -18 75 3 75 10 0 52 8 93 18 41 11 108 27 149 36 41 10 93 21 115 26
122 29 228 53 290 66 39 9 93 21 120 28 28 8 84 21 126 31 l76 18 6 86 c10
172 85 331 217 461 105 104 214 159 385 194 48 9 169 5 246 -10z m-1790 -1766
c85 -89 159 -166 164 -172 38 -41 192 -205 311 -331 78 -83 164 -174 192 -204
l50 -54 69 35 c152 80 313 105 477 74 178 -34 350 -143 442 -280 94 -140 134
-267 134 -424 0 -112 -20 -194 -75 -309 -37 -78 -57 -106 -132 -181 -148 -148
-305 -214 -509 -213 -139 0 -239 28 -363 101 -161 94 -288 268 -327 448 -20
98 -18 234 6 328 22 86 77 207 114 252 l24 28 -61 64 c-33 36 -142 150 -241
254 -100 105 -188 197 -196 206 -39 43 -151 163 -219 235 -42 44 -94 100 -115
123 l-40 42 65 69 c35 38 67 69 70 70 3 0 75 -72 160 -161z"/>
<path d="M1666 10754 c-9 -54 -306 -2254 -306 -2265 0 -18 813 0 978 21 187
24 383 95 518 188 217 148 404 461 459 767 25 136 22 363 -5 495 -66 321 -266
579 -552 715 -165 78 -345 104 -769 112 l-317 6 -6 -39z"/>
<path d="M5066 10104 c-280 -51 -550 -270 -677 -550 -56 -123 -73 -220 -73
-404 0 -187 11 -245 71 -364 92 -182 248 -308 453 -363 90 -24 337 -24 434 0
167 42 303 115 418 225 89 85 151 173 208 294 63 135 82 220 87 398 6 192 -8
267 -73 400 -98 197 -286 333 -514 369 -88 15 -238 12 -334 -5z"/>
<path d="M9157 10105 c-168 -32 -329 -117 -460 -244 -130 -125 -212 -258 -264
-428 -25 -82 -27 -101 -27 -278 0 -180 1 -194 27 -270 61 -182 179 -321 339
-399 141 -69 196 -81 378 -80 180 1 261 18 399 84 219 105 378 281 467 519 81
215 86 482 14 675 -71 189 -258 354 -465 411 -85 23 -308 29 -408 10z"/>
</g>
</svg>
